<svg width="80" height="80" viewBox="0 0 80 80" fill="none" xmlns="http://www.w3.org/2000/svg">
<rect x="0.5" y="0.5" width="79" height="79" fill="#101522" stroke="black"/>
<path d="M42.9835 18.9488H62.2648V40.355L42.9835 18.9488ZM22.5772 31.5112H22.3898C22.3898 27.2196 23.5564 24.0529 25.8898 22.0112C28.2231 19.9696 31.8168 18.9488 36.671 18.9488L62.2648 50.0112C62.2648 54.1362 61.1502 57.0842 58.921 58.855C56.7543 60.5842 53.2127 61.4488 48.296 61.4488L22.5772 31.5112ZM22.4835 39.9488L41.046 61.48H22.4835V39.9488Z" fill="url(#paint0_linear)"/>
<path d="M20.08 70.48C17.28 70.48 14.9 69.5 12.94 67.54C10.98 65.58 10 63.2 10 60.4V20.08C10 17.28 10.98 14.9 12.94 12.94C14.9 10.98 17.28 10 20.08 10H70.312V16.804H20.08C19.184 16.804 18.4 17.14 17.728 17.812C17.112 18.428 16.804 19.184 16.804 20.08V60.4C16.804 61.296 17.112 62.08 17.728 62.752C18.4 63.368 19.184 63.676 20.08 63.676H70.312V70.48H20.08Z" fill="white"/>
<defs>
<linearGradient id="paint0_linear" x1="26.296" y1="-1.52001" x2="15.796" y2="71.98" gradientUnits="userSpaceOnUse">
<stop stop-color="#A0B61B"/>
<stop offset="1" stop-color="#0BFB6B" stop-opacity="0"/>
</linearGradient>
</defs>
</svg>
